PathFileType	4	(x/y/z)	S09_M20_T18
DataRate	CameraRate	NumFrames	NumMarkers	Units	OrigDataRate	OrigDataStartFrame	OrigNumFrames
240	240	4	51	mm	240	419	558
Frame#	Time	Sternum			R.Acromium			L.Acromium			Top.Head			R.ASIS			L.ASIS			R.PSIS			L.PSIS			R.Great.Tro			L.Great.Tro			R.Iliac.Crest			L.Iliac.Crest			V.Sacral			R.Thigh.Upper.Post			R.Thigh.Lower.Ant			R.Thigh.Lower.Post			R.Thigh.Upper.Ant			R.Knee.Lat			R.Knee.Med			R.Shank.Upper.Post			R.Shank.Lower.Ant			R.Shank.Lower.Post			R.Shank.Upper.Ant			R.Ankle.Lat			R.Ankle.Med			R.Heel.Upper			R.Heel.Med			R.Heel.Lat			R.Toe.Lat			R.Toe.Med			R.Toe.Tip			L.Thigh.Upper.Post			L.Thigh.Lower.Ant			L.Thigh.Lower.Post			L.Thigh.Upper.Ant			L.Knee.Lat			L.Knee.Med			L.Shank.Upper.Post			L.Shank.Lower.Ant			L.Shank.Lower.Post			L.Shank.Upper.Ant			L.Ankle.Lat			L.Ankle.Med			L.Heel.Upper			L.Heel.Med			L.Heel.Lat			L.Toe.Lat			L.Toe.Med			L.Toe.Tip			Cervical.Spine			Back			
		X1	Y1	Z1	X2	Y2	Z2	X3	Y3	Z3	X4	Y4	Z4	X5	Y5	Z5	X6	Y6	Z6	X7	Y7	Z7	X8	Y8	Z8	X9	Y9	Z9	X10	Y10	Z10	X11	Y11	Z11	X12	Y12	Z12	X13	Y13	Z13	X14	Y14	Z14	X15	Y15	Z15	X16	Y16	Z16	X17	Y17	Z17	X18	Y18	Z18	X19	Y19	Z19	X20	Y20	Z20	X21	Y21	Z21	X22	Y22	Z22	X23	Y23	Z23	X24	Y24	Z24	X25	Y25	Z25	X26	Y26	Z26	X27	Y27	Z27	X28	Y28	Z28	X29	Y29	Z29	X30	Y30	Z30	X31	Y31	Z31	X32	Y32	Z32	X33	Y33	Z33	X34	Y34	Z34	X35	Y35	Z35	X36	Y36	Z36	X37	Y37	Z37	X38	Y38	Z38	X39	Y39	Z39	X40	Y40	Z40	X41	Y41	Z41	X42	Y42	Z42	X43	Y43	Z43	X44	Y44	Z44	X45	Y45	Z45	X46	Y46	Z46	X47	Y47	Z47	X48	Y48	Z48	X49	Y49	Z49	X50	Y50	Z50	X51	Y51	Z51	

419	1.7417	1369.3	1180.5	281.07	1203.4	1417.1	417.52	1212.3	1405	106.07	1178.8	1709.3	255.79	1320.3	995.08	392.93	1355.8	1013.4	149.65	1112.2	1011.2	284.97	1131.3	1019.4	196.97	1226.3	899.87	449.7	1307.3	922.32	69.05	1224.5	1068.8	425.91	1240.9	1100.4	101.88	1105.5	979.55	231.15	1223.4	653.82	446.75	1298.9	548.89	440.18	1221.2	560.17	429.09	1293.8	639.14	453.31	1261.1	472.34	436.28	1283.2	451.61	314.61	1086.4	421.47	416.68	1074.7	331.03	410	1024.1	380.41	396.79	1131.1	375.22	428.83	885.58	262.78	365.07	928.06	230.26	289.42	859.56	302.1	294.27	843.17	275.36	262.56	822.46	292.45	321.91	851.4	151.36	409.17	905.61	97.271	325.77	922.78	67.126	382.39	1307.2	652	123.3	1410.9	581.91	140.65	1342.7	572.09	150.56	1378.3	659.36	109.42	1412.1	503.41	155.54	1414.9	525.29	288.55	1369.8	371.59	144.97	1432.6	282.73	166.36	1369.7	294.9	153.63	1431.5	360.61	158.11	1382.5	100.34	183	1394.6	98.523	276.72	1311.8	70.319	237.63	1324.1	47.323	270.08	1312	40.073	210.48	1483.8	42.606	156.8	1522	48.826	265.88	1571.1	66.861	205.87	1123.6	1452.5	268.18	1106	1178.3	258.23
420	1.7458	1374.1	1181.4	280.94	1208.3	1418.1	417.23	1217.5	1406.1	105.78	1184.1	1710.3	255.42	1325	996.35	392.73	1360.6	1014.1	149.42	1116.9	1012.2	284.3	1136	1020.5	196.29	1231.3	900.85	449.18	1311.7	923.03	68.77	1228.8	1069.9	425.4	1246.3	1101.4	101.38	1110.2	980.62	230.42	1232.3	654.68	446.89	1309	550.69	440.22	1231.2	561.01	429.36	1302.9	640.87	453.28	1272.2	473.67	436.47	1294.1	453.23	314.56	1097.7	421.92	417.11	1086.5	331.43	409.99	1035.7	380.66	397.23	1142.8	375.81	428.86	897.53	262.66	365.19	940.03	230.77	289.25	870.23	301.47	294.54	854.06	274.39	262.99	833.54	291.16	322.46	865.77	150.8	409.63	920.26	97.633	325.93	938.41	67.961	382.45	1310.1	652.73	123.07	1413.4	582.03	140.38	1345.1	572.6	150.22	1381.3	659.69	109.21	1414	503.41	155.29	1416.9	525.25	288.26	1371.1	371.69	144.8	1433.5	282.59	166.17	1370.6	295.01	153.51	1432.7	360.47	157.89	1382.7	100.39	183	1394.7	98.603	276.69	1311.9	70.435	237.68	1324.1	47.4	270.09	1312	40.184	210.47	1483.8	42.534	156.77	1522	48.646	265.88	1571.1	66.578	205.88	1128.6	1453.7	267.81	1110.8	1179.5	257.4
421	1.75	1378.8	1182.3	280.81	1213.2	1419	416.94	1222.6	1407.2	105.49	1189.4	1711.4	255.06	1329.6	997.61	392.53	1365.2	1014.9	149.19	1121.6	1013.2	283.69	1140.7	1021.6	195.67	1236.2	901.84	448.71	1316.2	923.75	68.507	1233.2	1071	424.93	1251.5	1102.3	100.9	1114.8	981.7	229.76	1241.1	655.59	447.02	1319.1	552.57	440.23	1241.1	561.92	429.6	1311.9	642.66	453.24	1283.2	475.07	436.61	1304.9	454.94	314.47	1109.1	422.34	417.51	1098.4	331.8	409.99	1047.2	380.82	397.68	1154.5	376.41	428.89	909.58	262.31	365.38	952.09	231.12	289.13	880.98	300.64	294.92	865.05	273.24	263.52	844.71	289.65	323.13	880.29	150	410.06	935.06	97.852	326.01	954.21	68.634	382.41	1313	653.47	122.82	1415.9	582.14	140.1	1347.4	573.11	149.86	1384.2	660.03	108.97	1415.9	503.41	155.02	1419	525.22	287.95	1372.3	371.79	144.6	1434.5	282.46	165.98	1371.5	295.11	153.36	1433.9	360.34	157.66	1382.9	100.45	182.99	1394.9	98.696	276.65	1311.9	70.548	237.71	1324.2	47.483	270.1	1312	40.299	210.46	1483.8	42.455	156.72	1522.1	48.485	265.86	1571.2	66.306	205.86	1133.7	1454.8	267.45	1115.7	1180.7	256.58
422	1.7542	1383.5	1183.2	280.7	1218	1420	416.65	1227.8	1408.3	105.21	1194.7	1712.5	254.71	1334.2	998.86	392.32	1369.9	1015.7	148.94	1126.3	1014.2	283.15	1145.4	1022.7	195.1	1241.2	902.83	448.29	1320.5	924.47	68.258	1237.6	1072	424.49	1256.7	1103.2	100.44	1119.5	982.77	229.17	1249.8	656.55	447.16	1329.1	554.5	440.2	1251	562.88	429.83	1320.9	644.49	453.18	1294.2	476.54	436.71	1315.6	456.72	314.36	1120.5	422.73	417.89	1110.3	332.13	410.03	1058.8	380.9	398.12	1166.2	377.02	428.94	921.72	261.74	365.65	964.24	231.32	289.06	891.81	299.61	295.43	876.13	271.92	264.14	856	287.92	323.91	894.95	148.98	410.48	949.99	97.932	326.03	970.14	69.145	382.26	1315.9	654.21	122.55	1418.3	582.27	139.79	1349.7	573.64	149.47	1387	660.37	108.72	1417.8	503.43	154.73	1420.9	525.2	287.61	1373.5	371.89	144.37	1435.4	282.34	165.78	1372.5	295.22	153.19	1435.1	360.22	157.41	1383	100.5	182.97	1395.1	98.799	276.61	1312	70.66	237.73	1324.2	47.57	270.1	1312.1	40.419	210.45	1483.9	42.369	156.67	1522.1	48.339	265.84	1571.3	66.041	205.84	1138.7	1456	267.09	1120.5	1181.9	255.78
